<svg width="217" height="225" viewBox="0 0 217 225" fill="none" xmlns="http://www.w3.org/2000/svg">
<path d="M34.0834 163.501C35.2507 164.398 35.4512 165.949 34.5511 167.12C33.6511 168.292 32.1006 168.497 30.9334 167.6C29.7661 166.703 29.5656 165.152 30.4657 163.981C31.3657 162.81 33.0134 162.679 34.0834 163.501Z" fill="#FFCF2D"/>
<path d="M47.5087 146.03C48.676 146.927 48.8765 148.479 47.9764 149.65C47.0764 150.821 45.5259 151.026 44.3587 150.129C43.1914 149.232 42.9909 147.681 43.8909 146.51C44.716 145.436 46.4387 145.208 47.5087 146.03Z" fill="#FFCF2D"/>
<path d="M60.8588 128.658C62.0261 129.555 62.2265 131.106 61.3265 132.278C60.4265 133.449 58.876 133.654 57.7088 132.757C56.5415 131.86 56.341 130.309 57.241 129.138C58.1411 127.967 59.7888 127.836 60.8588 128.658Z" fill="#FFCF2D"/>
<path d="M74.2841 111.189C75.4514 112.086 75.6518 113.637 74.7518 114.808C73.8518 115.979 72.3013 116.185 71.1341 115.288C69.9668 114.391 69.7663 112.839 70.6663 111.668C71.5664 110.497 73.2141 110.366 74.2841 111.189Z" fill="#FFCF2D"/>
<path d="M87.7094 93.7188C88.8767 94.6158 89.0771 96.167 88.1771 97.3381C87.2771 98.5093 85.7266 98.7149 84.5593 97.8179C83.3921 96.9208 83.1916 95.3697 84.0916 94.1985C84.9166 93.125 86.6394 92.8965 87.7094 93.7188Z" fill="#FFCF2D"/>
<path d="M101.135 76.2491C102.302 77.1461 102.502 78.6973 101.602 79.8684C100.702 81.0396 99.1519 81.2452 97.9846 80.3481C96.8174 79.4511 96.6169 77.9 97.5169 76.7288C98.4169 75.5576 100.065 75.4268 101.135 76.2491Z" fill="#FFCF2D"/>
<path d="M114.485 58.877C115.652 59.774 115.853 61.3252 114.953 62.4963C114.053 63.6675 112.502 63.8731 111.335 62.9761C110.167 62.079 109.967 60.5279 110.867 59.3567C111.767 58.1856 113.415 58.0547 114.485 58.877Z" fill="#FFCF2D"/>
<path d="M127.91 41.4073C129.077 42.3043 129.278 43.8555 128.378 45.0266C127.478 46.1978 125.927 46.4034 124.76 45.5063C123.593 44.6093 123.392 43.0582 124.292 41.887C125.192 40.7158 126.84 40.585 127.91 41.4073Z" fill="#FFCF2D"/>
<path d="M141.335 23.9376C142.503 24.8346 142.703 26.3857 141.803 27.5569C140.903 28.728 139.353 28.9336 138.185 28.0366C137.018 27.1396 136.818 25.5884 137.718 24.4173C138.543 23.3437 140.265 23.1153 141.335 23.9376Z" fill="#FFCF2D"/>
<path d="M48.5771 174.639C49.7444 175.536 49.9448 177.087 49.0448 178.258C48.1448 179.429 46.5943 179.635 45.427 178.738C44.2597 177.841 44.0593 176.29 44.9593 175.118C45.8593 173.947 47.4098 173.742 48.5771 174.639Z" fill="#FFCF2D"/>
<path d="M62.0024 157.169C63.1697 158.066 63.3701 159.617 62.4701 160.788C61.5701 161.959 60.0196 162.165 58.8523 161.268C57.685 160.371 57.4846 158.82 58.3846 157.649C59.2096 156.575 60.8351 156.272 62.0024 157.169Z" fill="#FFCF2D"/>
<path d="M75.3525 139.797C76.5198 140.694 76.7202 142.245 75.8202 143.416C74.9202 144.587 73.3697 144.793 72.2024 143.896C71.0351 142.999 70.8347 141.448 71.7347 140.277C72.6347 139.105 74.1852 138.9 75.3525 139.797Z" fill="#FFCF2D"/>
<path d="M88.7778 122.327C89.945 123.224 90.1455 124.775 89.2455 125.947C88.3455 127.118 86.795 127.323 85.6277 126.426C84.4604 125.529 84.26 123.978 85.16 122.807C86.06 121.636 87.6105 121.43 88.7778 122.327Z" fill="#FFCF2D"/>
<path d="M102.203 104.856C103.37 105.754 103.571 107.305 102.671 108.476C101.771 109.647 100.22 109.853 99.053 108.956C97.8857 108.059 97.6853 106.507 98.5853 105.336C99.4103 104.263 101.036 103.959 102.203 104.856Z" fill="#FFCF2D"/>
<path d="M115.628 87.3868C116.796 88.2838 116.996 89.8349 116.096 91.0061C115.196 92.1773 113.646 92.3829 112.478 91.4858C111.311 90.5888 111.111 89.0376 112.011 87.8665C112.911 86.6953 114.461 86.4897 115.628 87.3868Z" fill="#FFCF2D"/>
<path d="M128.978 70.0147C130.146 70.9117 130.346 72.4629 129.446 73.634C128.546 74.8052 126.996 75.0108 125.828 74.1138C124.661 73.2167 124.461 71.6656 125.361 70.4944C126.261 69.3233 127.811 69.1177 128.978 70.0147Z" fill="#FFCF2D"/>
<path d="M142.404 52.545C143.571 53.442 143.771 54.9932 142.871 56.1643C141.971 57.3355 140.421 57.5411 139.254 56.644C138.086 55.747 137.886 54.1958 138.786 53.0247C139.686 51.8535 141.236 51.6479 142.404 52.545Z" fill="#FFCF2D"/>
<path d="M155.829 35.0752C156.996 35.9723 157.197 37.5234 156.297 38.6946C155.397 39.8657 153.846 40.0713 152.679 39.1743C151.512 38.2773 151.311 36.7261 152.211 35.555C153.036 34.4814 154.662 34.1782 155.829 35.0752Z" fill="#FFCF2D"/>
<path d="M5.19329 141.299C6.36057 142.196 6.56102 143.747 5.66101 144.918C4.76099 146.089 3.21052 146.295 2.04323 145.398C0.87595 144.501 0.6755 142.95 1.57552 141.779C2.47553 140.607 4.02601 140.402 5.19329 141.299Z" fill="#FFCF2D"/>
<path d="M18.6186 123.829C19.7859 124.726 19.9863 126.277 19.0863 127.448C18.1863 128.62 16.6358 128.825 15.4685 127.928C14.3012 127.031 14.1008 125.48 15.0008 124.309C15.8258 123.235 17.4513 122.932 18.6186 123.829Z" fill="#FFCF2D"/>
<path d="M31.9687 106.457C33.136 107.354 33.3364 108.905 32.4364 110.076C31.5364 111.248 29.9859 111.453 28.8186 110.556C27.6513 109.659 27.5259 108.01 28.3509 106.937C29.2509 105.766 30.8014 105.56 31.9687 106.457Z" fill="#FFCF2D"/>
<path d="M45.394 88.9864C46.5613 89.8834 46.7617 91.4346 45.8617 92.6057C44.9617 93.7769 43.4112 93.9825 42.2439 93.0854C41.0766 92.1884 40.9512 90.5397 41.7762 89.4661C42.6012 88.3925 44.2267 88.0893 45.394 88.9864Z" fill="#FFCF2D"/>
<path d="M58.8193 71.5176C59.9865 72.4147 60.187 73.9658 59.287 75.137C58.387 76.3081 56.8365 76.5137 55.6692 75.6167C54.5019 74.7197 54.3015 73.1685 55.2015 71.9973C56.0265 70.9238 57.652 70.6206 58.8193 71.5176Z" fill="#FFCF2D"/>
<path d="M72.2446 54.0469C73.4118 54.944 73.6123 56.4951 72.7123 57.6663C71.8123 58.8374 70.2618 59.043 69.0945 58.146C67.9272 57.2489 67.7268 55.6978 68.6268 54.5266C69.5268 53.3555 71.0773 53.1499 72.2446 54.0469Z" fill="#FFCF2D"/>
<path d="M85.5947 36.6749C86.7619 37.5719 86.9624 39.123 86.0624 40.2942C85.1624 41.4654 83.6119 41.6709 82.4446 40.7739C81.2773 39.8769 81.0769 38.3257 81.9769 37.1546C82.8769 35.9834 84.4274 35.7778 85.5947 36.6749Z" fill="#FFCF2D"/>
<path d="M99.02 19.2051C100.187 20.1022 100.388 21.6533 99.4877 22.8245C98.5876 23.9956 97.0372 24.2012 95.8699 23.3042C94.7026 22.4072 94.5022 20.856 95.4022 19.6848C96.3022 18.5137 97.8527 18.3081 99.02 19.2051Z" fill="#FFCF2D"/>
<path d="M112.445 1.73542C113.613 2.63245 113.813 4.18359 112.913 5.35474C112.013 6.5259 110.462 6.7315 109.295 5.83446C108.128 4.93743 107.927 3.38627 108.827 2.21512C109.652 1.14156 111.278 0.83838 112.445 1.73542Z" fill="#FFCF2D"/>
<path d="M19.6869 152.438C20.8542 153.335 21.0547 154.886 20.1547 156.057C19.2546 157.228 17.6069 157.359 16.5369 156.537C15.3696 155.64 15.1692 154.088 16.0692 152.917C16.9692 151.746 18.5197 151.541 19.6869 152.438Z" fill="#FFCF2D"/>
<path d="M33.1122 134.967C34.2795 135.864 34.48 137.415 33.58 138.586C32.6799 139.757 31.1295 139.963 29.9622 139.066C28.7949 138.169 28.5944 136.618 29.4945 135.447C30.3195 134.373 31.945 134.07 33.1122 134.967Z" fill="#FFCF2D"/>
<path d="M46.4623 117.595C47.6296 118.492 47.8301 120.043 46.93 121.214C46.03 122.385 44.4796 122.591 43.3123 121.694C42.145 120.797 41.9445 119.246 42.8446 118.074C43.7446 116.903 45.295 116.698 46.4623 117.595Z" fill="#FFCF2D"/>
<path d="M59.8876 100.125C61.0549 101.022 61.2554 102.573 60.3553 103.744C59.4553 104.916 57.9049 105.121 56.7376 104.224C55.5703 103.327 55.3698 101.776 56.2699 100.605C57.1699 99.4336 58.7203 99.228 59.8876 100.125Z" fill="#FFCF2D"/>
<path d="M73.3129 82.6553C74.4802 83.5524 74.6807 85.1035 73.7806 86.2747C72.8806 87.4458 71.3301 87.6514 70.1629 86.7544C68.9956 85.8573 68.7951 84.3062 69.6951 83.135C70.5202 82.0615 72.1456 81.7583 73.3129 82.6553Z" fill="#FFCF2D"/>
<path d="M86.7382 65.1856C87.9055 66.0826 88.1059 67.6338 87.2059 68.8049C86.3059 69.9761 84.7554 70.1817 83.5882 69.2847C82.4209 68.3876 82.2204 66.8365 83.1204 65.6653C84.0205 64.4942 85.5709 64.2886 86.7382 65.1856Z" fill="#FFCF2D"/>
<path d="M100.088 47.8135C101.256 48.7106 101.456 50.2617 100.556 51.4329C99.656 52.604 98.1055 52.8096 96.9383 51.9126C95.771 51.0156 95.5705 49.4644 96.4705 48.2932C97.3706 47.1221 98.921 46.9165 100.088 47.8135Z" fill="#FFCF2D"/>
<path d="M113.514 30.3438C114.681 31.2408 114.881 32.792 113.981 33.9631C113.081 35.1343 111.531 35.3399 110.364 34.4429C109.196 33.5458 108.996 31.9947 109.896 30.8235C110.796 29.6524 112.346 29.4468 113.514 30.3438Z" fill="#FFCF2D"/>
<path d="M126.939 12.8741C128.106 13.7711 128.307 15.3222 127.407 16.4934C126.507 17.6646 124.956 17.8702 123.789 16.9731C122.622 16.0761 122.421 14.5249 123.321 13.3538C124.146 12.2802 125.772 11.977 126.939 12.8741Z" fill="#FFCF2D"/>
<path d="M62.9741 185.702C64.1413 186.599 64.3418 188.15 63.4418 189.322C62.5418 190.493 60.9913 190.698 59.824 189.801C58.6567 188.904 58.4563 187.353 59.3563 186.182C60.2563 185.011 61.904 184.88 62.9741 185.702Z" fill="#FFCF2D"/>
<path d="M76.3993 168.232C77.5666 169.129 77.7671 170.681 76.8671 171.852C75.967 173.023 74.4166 173.229 73.2493 172.332C72.082 171.434 71.8816 169.883 72.7816 168.712C73.6066 167.639 75.3293 167.41 76.3993 168.232Z" fill="#FFCF2D"/>
<path d="M89.7494 150.86C90.9167 151.757 91.1172 153.309 90.2172 154.48C89.3171 155.651 87.7667 155.856 86.5994 154.959C85.4321 154.062 85.2317 152.511 86.1317 151.34C87.0317 150.169 88.6794 150.038 89.7494 150.86Z" fill="#FFCF2D"/>
<path d="M103.175 133.391C104.342 134.288 104.542 135.839 103.642 137.01C102.742 138.181 101.192 138.387 100.025 137.49C98.8574 136.593 98.6569 135.042 99.557 133.87C100.457 132.699 102.105 132.568 103.175 133.391Z" fill="#FFCF2D"/>
<path d="M116.6 115.921C117.767 116.818 117.968 118.369 117.068 119.54C116.168 120.711 114.617 120.917 113.45 120.02C112.283 119.123 112.082 117.572 112.982 116.401C113.807 115.327 115.53 115.099 116.6 115.921Z" fill="#FFCF2D"/>
<path d="M130.025 98.4502C131.193 99.3473 131.393 100.898 130.493 102.07C129.593 103.241 128.043 103.446 126.875 102.549C125.708 101.652 125.508 100.101 126.408 98.93C127.308 97.7588 128.955 97.628 130.025 98.4502Z" fill="#FFCF2D"/>
<path d="M143.375 81.0782C144.543 81.9752 144.743 83.5263 143.843 84.6975C142.943 85.8687 141.393 86.0743 140.225 85.1772C139.058 84.2802 138.858 82.729 139.758 81.5579C140.658 80.3867 142.305 80.2559 143.375 81.0782Z" fill="#FFCF2D"/>
<path d="M156.801 63.6084C157.968 64.5055 158.168 66.0566 157.268 67.2278C156.368 68.3989 154.818 68.6045 153.651 67.7075C152.483 66.8105 152.283 65.2593 153.183 64.0882C154.083 62.917 155.731 62.7862 156.801 63.6084Z" fill="#FFCF2D"/>
<path d="M170.226 46.1387C171.393 47.0358 171.594 48.5869 170.694 49.7581C169.794 50.9292 168.243 51.1348 167.076 50.2378C165.909 49.3407 165.708 47.7896 166.608 46.6184C167.433 45.5449 169.156 45.3164 170.226 46.1387Z" fill="#FFCF2D"/>
<path d="M77.4677 196.84C78.635 197.737 78.8354 199.288 77.9354 200.459C77.0354 201.63 75.4849 201.836 74.3176 200.939C73.1504 200.042 72.9499 198.491 73.8499 197.32C74.7499 196.148 76.3004 195.943 77.4677 196.84Z" fill="#FFCF2D"/>
<path d="M90.893 179.37C92.0603 180.267 92.2607 181.818 91.3607 182.99C90.4607 184.161 88.9102 184.366 87.7429 183.469C86.5757 182.572 86.3752 181.021 87.2752 179.85C88.1002 178.776 89.7257 178.473 90.893 179.37Z" fill="#FFCF2D"/>
<path d="M104.243 161.998C105.41 162.895 105.611 164.446 104.711 165.617C103.811 166.789 102.26 166.994 101.093 166.097C99.9258 165.2 99.7253 163.649 100.625 162.478C101.525 161.307 103.076 161.101 104.243 161.998Z" fill="#FFCF2D"/>
<path d="M118.136 148.148C119.006 147.016 118.797 145.395 117.668 144.528C116.54 143.661 114.92 143.876 114.051 145.008C113.181 146.14 113.39 147.76 114.518 148.627C115.647 149.494 117.266 149.28 118.136 148.148Z" fill="#FFCF2D"/>
<path d="M131.094 127.059C132.261 127.956 132.461 129.507 131.561 130.678C130.661 131.849 129.111 132.055 127.944 131.158C126.776 130.261 126.576 128.71 127.476 127.538C128.301 126.465 129.926 126.162 131.094 127.059Z" fill="#FFCF2D"/>
<path d="M144.519 109.589C145.686 110.486 145.887 112.037 144.987 113.208C144.087 114.379 142.536 114.585 141.369 113.688C140.202 112.791 140.001 111.24 140.901 110.069C141.801 108.897 143.352 108.692 144.519 109.589Z" fill="#FFCF2D"/>
<path d="M157.869 92.2168C159.036 93.1139 159.237 94.665 158.337 95.8362C157.437 97.0073 155.886 97.2129 154.719 96.3159C153.552 95.4189 153.351 93.8677 154.251 92.6966C155.151 91.5254 156.702 91.3198 157.869 92.2168Z" fill="#FFCF2D"/>
<path d="M171.762 78.3665C172.632 77.2345 172.423 75.6141 171.294 74.7471C170.166 73.8801 168.546 74.0949 167.677 75.2268C166.807 76.3588 167.016 77.9792 168.144 78.8462C169.272 79.7132 170.892 79.4984 171.762 78.3665Z" fill="#FFCF2D"/>
<path d="M184.72 57.2774C185.887 58.1744 186.087 59.7256 185.187 60.8967C184.287 62.0679 182.737 62.2735 181.57 61.3765C180.402 60.4794 180.202 58.9283 181.102 57.7571C181.927 56.6835 183.552 56.3804 184.72 57.2774Z" fill="#FFCF2D"/>
<path d="M91.9614 207.979C93.1286 208.876 93.3291 210.427 92.4291 211.598C91.5291 212.769 89.9786 212.975 88.8113 212.078C87.644 211.181 87.4436 209.629 88.3436 208.458C89.2436 207.287 90.7941 207.082 91.9614 207.979Z" fill="#FFCF2D"/>
<path d="M105.387 190.509C106.554 191.406 106.754 192.957 105.854 194.128C104.954 195.299 103.404 195.505 102.237 194.608C101.069 193.711 100.869 192.16 101.769 190.989C102.594 189.915 104.219 189.612 105.387 190.509Z" fill="#FFCF2D"/>
<path d="M118.737 173.137C119.904 174.034 120.104 175.585 119.204 176.756C118.304 177.927 116.754 178.133 115.587 177.236C114.419 176.339 114.219 174.788 115.119 173.616C116.019 172.445 117.569 172.24 118.737 173.137Z" fill="#FFCF2D"/>
<path d="M132.162 155.666C133.329 156.563 133.53 158.114 132.63 159.285C131.73 160.457 130.179 160.662 129.012 159.765C127.845 158.868 127.644 157.317 128.544 156.146C129.444 154.975 130.995 154.769 132.162 155.666Z" fill="#FFCF2D"/>
<path d="M145.587 138.197C146.755 139.094 146.955 140.645 146.055 141.817C145.155 142.988 143.605 143.193 142.437 142.296C141.27 141.399 141.07 139.848 141.97 138.677C142.795 137.603 144.42 137.3 145.587 138.197Z" fill="#FFCF2D"/>
<path d="M159.013 120.727C160.18 121.624 160.38 123.175 159.48 124.346C158.58 125.517 157.03 125.723 155.863 124.826C154.695 123.929 154.495 122.377 155.395 121.206C156.295 120.035 157.845 119.83 159.013 120.727Z" fill="#FFCF2D"/>
<path d="M172.363 103.355C173.53 104.252 173.73 105.803 172.83 106.974C171.93 108.145 170.38 108.351 169.213 107.454C168.045 106.557 167.845 105.005 168.745 103.834C169.645 102.663 171.195 102.458 172.363 103.355Z" fill="#FFCF2D"/>
<path d="M185.788 85.8848C186.955 86.7818 187.156 88.333 186.256 89.5042C185.356 90.6753 183.805 90.8809 182.638 89.9839C181.471 89.0868 181.27 87.5357 182.17 86.3645C183.07 85.1934 184.621 84.9878 185.788 85.8848Z" fill="#FFCF2D"/>
<path d="M199.213 68.4151C200.381 69.3121 200.581 70.8633 199.681 72.0344C198.781 73.2056 197.231 73.4112 196.063 72.5142C194.896 71.6171 194.696 70.066 195.596 68.8948C196.421 67.8212 198.046 67.5181 199.213 68.4151Z" fill="#FFCF2D"/>
<path d="M106.358 219.042C107.525 219.939 107.726 221.49 106.826 222.661C105.926 223.833 104.375 224.038 103.208 223.141C102.041 222.244 101.84 220.693 102.74 219.522C103.64 218.351 105.288 218.22 106.358 219.042Z" fill="#FFCF2D"/>
<path d="M119.783 201.572C120.95 202.469 121.151 204.02 120.251 205.192C119.351 206.363 117.8 206.568 116.633 205.671C115.466 204.774 115.265 203.223 116.165 202.052C116.99 200.978 118.713 200.75 119.783 201.572Z" fill="#FFCF2D"/>
<path d="M133.133 184.2C134.301 185.097 134.501 186.648 133.601 187.82C132.701 188.991 131.15 189.196 129.983 188.299C128.816 187.402 128.615 185.851 129.515 184.68C130.415 183.509 132.063 183.378 133.133 184.2Z" fill="#FFCF2D"/>
<path d="M146.559 166.731C147.726 167.628 147.926 169.179 147.026 170.35C146.126 171.521 144.576 171.727 143.408 170.83C142.241 169.933 142.041 168.381 142.941 167.21C143.841 166.039 145.489 165.908 146.559 166.731Z" fill="#FFCF2D"/>
<path d="M159.984 149.26C161.151 150.157 161.352 151.708 160.452 152.879C159.552 154.05 158.001 154.256 156.834 153.359C155.666 152.462 155.466 150.911 156.366 149.74C157.191 148.666 158.914 148.438 159.984 149.26Z" fill="#FFCF2D"/>
<path d="M173.409 131.79C174.576 132.687 174.777 134.238 173.877 135.409C172.977 136.581 171.426 136.786 170.259 135.889C169.092 134.992 168.891 133.441 169.791 132.27C170.691 131.099 172.339 130.968 173.409 131.79Z" fill="#FFCF2D"/>
<path d="M186.759 114.418C187.926 115.315 188.127 116.866 187.227 118.037C186.327 119.209 184.776 119.414 183.609 118.517C182.442 117.62 182.241 116.069 183.141 114.898C184.041 113.727 185.689 113.596 186.759 114.418Z" fill="#FFCF2D"/>
<path d="M200.185 96.9483C201.352 97.8453 201.552 99.3965 200.652 100.568C199.752 101.739 198.202 101.944 197.034 101.047C195.867 100.15 195.667 98.5992 196.567 97.428C197.467 96.2568 199.114 96.126 200.185 96.9483Z" fill="#FFCF2D"/>
<path d="M213.98 79.5001C215.148 80.3971 215.348 81.9482 214.448 83.1194C213.548 84.2905 211.998 84.4961 210.83 83.5991C209.663 82.7021 209.463 81.1509 210.363 79.9798C211.188 78.9062 212.91 78.6778 213.98 79.5001Z" fill="#FFCF2D"/>
</svg>
